<svg width="48" height="48" viewBox="0 0 48 48" fill="none" xmlns="http://www.w3.org/2000/svg">
  <defs>
    <linearGradient id="aiGradient" x1="0%" y1="0%" x2="100%" y2="100%">
      <stop offset="0%" style="stop-color:#6366f1;stop-opacity:1" />
      <stop offset="100%" style="stop-color:#8b5cf6;stop-opacity:1" />
    </linearGradient>
  </defs>
  
  <!-- AI Brain/Chip shape -->
  <rect x="8" y="12" width="32" height="24" rx="4" fill="url(#aiGradient)"/>
  
  <!-- Circuit patterns -->
  <path d="M12 16 L36 16 M12 20 L36 20 M12 24 L36 24 M12 28 L36 28 M12 32 L36 32" stroke="white" stroke-width="1" opacity="0.3"/>
  <path d="M16 12 L16 36 M20 12 L20 36 M24 12 L24 36 M28 12 L28 36 M32 12 L32 36" stroke="white" stroke-width="1" opacity="0.3"/>
  
  <!-- Central processor -->
  <rect x="18" y="18" width="12" height="12" rx="2" fill="white" opacity="0.9"/>
  <rect x="20" y="20" width="8" height="8" rx="1" fill="url(#aiGradient)"/>
  
  <!-- Connection ports -->
  <circle cx="12" cy="18" r="1.5" fill="white"/>
  <circle cx="36" cy="18" r="1.5" fill="white"/>
  <circle cx="12" cy="30" r="1.5" fill="white"/>
  <circle cx="36" cy="30" r="1.5" fill="white"/>
  
  <!-- Data flow indicators -->
  <circle cx="22" cy="22" r="1" fill="white" opacity="0.8"/>
  <circle cx="26" cy="22" r="1" fill="white" opacity="0.8"/>
  <circle cx="22" cy="26" r="1" fill="white" opacity="0.8"/>
  <circle cx="26" cy="26" r="1" fill="white" opacity="0.8"/>
  
  <!-- External connectors -->
  <rect x="6" y="17" width="2" height="2" fill="url(#aiGradient)"/>
  <rect x="40" y="17" width="2" height="2" fill="url(#aiGradient)"/>
  <rect x="6" y="29" width="2" height="2" fill="url(#aiGradient)"/>
  <rect x="40" y="29" width="2" height="2" fill="url(#aiGradient)"/>
</svg>