<svg width="48" height="48" viewBox="0 0 48 48" fill="none" xmlns="http://www.w3.org/2000/svg">
  <defs>
    <linearGradient id="brainGradient" x1="0%" y1="0%" x2="100%" y2="100%">
      <stop offset="0%" style="stop-color:#6366f1;stop-opacity:1" />
      <stop offset="100%" style="stop-color:#8b5cf6;stop-opacity:1" />
    </linearGradient>
  </defs>
  
  <!-- Brain outline -->
  <path d="M24 4C18.5 4 14 8.5 14 14c0 1.5 0.3 2.9 0.8 4.2C13.1 19.4 12 21.6 12 24c0 3.3 2.7 6 6 6h2v8c0 3.3 2.7 6 6 6s6-2.7 6-6v-8h2c3.3 0 6-2.7 6-6 0-2.4-1.1-4.6-2.8-5.8C37.7 16.9 38 15.5 38 14c0-5.5-4.5-10-10-10-2.8 0-5.3 1.1-7.2 2.9C19.3 5.1 17.7 4 16 4c-2.2 0-4 1.8-4 4 0 1.1 0.4 2.1 1.1 2.9C11.4 12.4 10 15 10 18c0 2.2 1.8 4 4 4h1.5c0.8 1.2 2.1 2 3.5 2h6c1.4 0 2.7-0.8 3.5-2H30c2.2 0 4-1.8 4-4 0-3-1.4-5.6-3.1-7.1C31.6 10.1 32 9.1 32 8c0-2.2-1.8-4-4-4-1.7 0-3.3 1.1-4.8 2.9C21.3 5.1 18.8 4 16 4z" fill="url(#brainGradient)"/>
  
  <!-- Neural connections -->
  <circle cx="20" cy="16" r="2" fill="white" opacity="0.8"/>
  <circle cx="28" cy="18" r="1.5" fill="white" opacity="0.8"/>
  <circle cx="24" cy="22" r="1.5" fill="white" opacity="0.8"/>
  <circle cx="18" cy="26" r="1" fill="white" opacity="0.8"/>
  <circle cx="30" cy="24" r="1" fill="white" opacity="0.8"/>
  
  <!-- Connection lines -->
  <path d="M20 16 L24 22 L28 18" stroke="white" stroke-width="1" opacity="0.6" fill="none"/>
  <path d="M24 22 L18 26" stroke="white" stroke-width="1" opacity="0.6" fill="none"/>
  <path d="M24 22 L30 24" stroke="white" stroke-width="1" opacity="0.6" fill="none"/>
</svg>